<svg width="38" height="38" viewBox="0 0 38 38" fill="none" xmlns="http://www.w3.org/2000/svg">
<path d="M35.0303 17.6622C34.9347 17.6552 34.8238 17.6505 34.7118 17.6505C34.1472 17.6505 33.607 17.7555 33.11 17.9469L33.1403 17.9364C32.9945 17.9947 32.7612 17.9947 32.7413 18.1802C32.8218 18.2572 32.8335 18.3844 32.9012 18.4917C33.0377 18.7227 33.2057 18.9187 33.4017 19.082L33.4052 19.0855C33.6093 19.2454 33.8135 19.4005 34.0282 19.537C34.4073 19.7704 34.8378 19.9092 35.2088 20.1437C35.42 20.2802 35.6358 20.454 35.8505 20.5999C35.9567 20.6722 36.0255 20.804 36.162 20.8507V20.8215C36.0955 20.734 36.0745 20.6069 36.0092 20.51C35.9112 20.412 35.8143 20.3245 35.7175 20.2289C35.4282 19.8497 35.0933 19.5254 34.7177 19.2547L34.7037 19.2454C34.3922 19.033 33.7097 18.7355 33.5813 18.3774L33.5627 18.3564C33.817 18.3202 34.0433 18.2665 34.2615 18.1942L34.2335 18.2024C34.5648 18.1149 34.8682 18.1335 35.21 18.0484C35.364 18.0087 35.5203 17.9609 35.6767 17.9119V17.8244C35.5017 17.6494 35.371 17.4114 35.1902 17.248C34.713 16.828 34.1868 16.4337 33.6327 16.079L33.5802 16.0475C33.2745 15.8527 32.886 15.7267 32.564 15.561C32.4473 15.5027 32.2525 15.4735 32.1848 15.3755C32.0332 15.1597 31.899 14.9124 31.7928 14.651L31.7835 14.6254C31.4973 14.07 31.2313 13.505 30.9855 12.9302C30.8175 12.4834 30.6507 12.117 30.4628 11.7624L30.4897 11.8172C29.5727 10.2784 28.2952 9.04171 26.7703 8.19821L26.7202 8.17254C26.3597 7.99404 25.9408 7.85521 25.501 7.77704L25.4718 7.77237C25.228 7.76071 24.9853 7.74321 24.7427 7.73271C24.5723 7.62304 24.4253 7.51104 24.2877 7.38737L24.2912 7.39087C23.737 7.04088 22.3032 6.28254 21.8948 7.28587C21.6323 7.91821 22.2845 8.54237 22.5097 8.86321C22.6893 9.07671 22.8527 9.31587 22.9938 9.56904L23.0055 9.59237C23.0743 9.76154 23.093 9.93537 23.1618 10.1115C23.331 10.6389 23.5025 11.0717 23.6973 11.4905L23.667 11.4182C23.7825 11.6504 23.9027 11.8475 24.0368 12.0342L24.0275 12.0202C24.1057 12.1264 24.2398 12.1765 24.2713 12.3515C24.171 12.5627 24.0928 12.8077 24.0497 13.0632L24.0473 13.0795C23.9213 13.4669 23.8478 13.9137 23.8478 14.3769C23.8478 15.1014 24.0263 15.7839 24.3413 16.3835L24.3297 16.3602C24.486 16.6017 24.857 17.1384 25.354 16.933C25.7915 16.758 25.6947 16.2039 25.8207 15.7162C25.8498 15.5995 25.8312 15.5225 25.8907 15.4432V15.4654C26.0272 15.7395 26.1648 16.0009 26.2897 16.275C26.642 16.7825 27.0608 17.2142 27.5392 17.57L27.5543 17.5805C27.7877 17.7555 27.9732 18.0589 28.2648 18.1662V18.137H28.2427C28.1762 18.0647 28.1027 18.0005 28.0222 17.9457L28.0175 17.9434C27.8367 17.766 27.6687 17.5747 27.517 17.3729L27.5077 17.36C27.1273 16.8467 26.7657 16.2657 26.4518 15.6555L26.418 15.5844C26.2582 15.2787 26.124 14.9485 25.9957 14.6464C25.9373 14.5297 25.9373 14.3547 25.8393 14.2964C25.6667 14.49 25.5115 14.7059 25.382 14.938L25.3727 14.9567C25.2233 15.3919 25.1253 15.8947 25.0997 16.4162V16.429C25.06 16.4395 25.0798 16.429 25.06 16.45C24.7485 16.3742 24.6412 16.051 24.5245 15.7792C24.3658 15.3522 24.2737 14.8575 24.2737 14.343C24.2737 13.9277 24.3332 13.5264 24.4452 13.1472L24.4382 13.1775C24.507 12.9734 24.7987 12.3294 24.682 12.1334C24.6213 11.9479 24.4288 11.8417 24.3215 11.6912C24.1943 11.5115 24.0777 11.3074 23.9808 11.0915L23.9715 11.0682C23.7382 10.5234 23.6215 9.91904 23.3683 9.37421C23.2155 9.08954 23.0545 8.84454 22.8737 8.61587L22.8818 8.62637C22.6893 8.40354 22.512 8.15504 22.358 7.89137L22.3452 7.86804C22.2973 7.76187 22.2285 7.58571 22.3055 7.46904C22.3195 7.40137 22.3732 7.34887 22.442 7.33837C22.5703 7.23337 22.932 7.36987 23.058 7.42821C23.4278 7.56821 23.7463 7.73271 24.0415 7.92637L24.0228 7.91471C24.1593 8.01037 24.3075 8.19587 24.4825 8.24371H24.6867C24.9982 8.31254 25.3505 8.26471 25.6422 8.34987C26.1777 8.53071 26.6408 8.75704 27.069 9.03471L27.0445 9.01954C28.3325 9.85137 29.3638 10.976 30.0615 12.3049L30.0848 12.3527C30.2015 12.5767 30.2528 12.7832 30.359 13.0165C30.5632 13.4972 30.8152 13.9837 31.0228 14.448C31.22 14.9474 31.4533 15.379 31.731 15.7769L31.717 15.7559C31.8628 15.96 32.4485 16.0662 32.711 16.1724C32.9875 16.2692 33.2092 16.3614 33.4238 16.4652L33.3807 16.4465C33.7155 16.6507 34.0422 16.884 34.3572 17.108C34.517 17.2189 35.0035 17.4627 35.0327 17.6587L35.0303 17.6622ZM21.3523 26.194C21.3523 26.2115 21.3535 26.2314 21.3535 26.2512C21.3535 26.9022 21.063 27.4844 20.6033 27.8764L20.5998 27.8787C20.0958 28.2894 19.446 28.539 18.7378 28.539C18.683 28.539 18.6282 28.5379 18.5745 28.5344H18.5815C17.7193 28.5227 16.926 28.2427 16.2762 27.7749L16.2878 27.783L16.6332 27.0889C17.1337 27.3689 17.7287 27.5427 18.361 27.5672H18.368C18.3995 27.5695 18.4357 27.5707 18.473 27.5707C18.8603 27.5707 19.2208 27.4494 19.516 27.2429L19.5102 27.2464C19.7773 27.0434 19.9477 26.726 19.9477 26.369C19.9477 26.362 19.9477 26.3562 19.9477 26.3492V26.3504C19.9477 25.8697 19.6128 25.4614 19.0027 25.1184C18.4368 24.808 17.3075 24.1605 17.3075 24.1605C16.7498 23.8152 16.3847 23.2074 16.3847 22.5144C16.3847 22.4899 16.3847 22.4654 16.3858 22.4409V22.4444C16.3847 22.4222 16.3847 22.3965 16.3847 22.3709C16.3847 21.77 16.6495 21.231 17.0683 20.8647L17.0707 20.8624C17.5163 20.4844 18.0985 20.2545 18.7343 20.2545C18.7752 20.2545 18.8148 20.2557 18.8545 20.2569H18.8487C18.8592 20.2569 18.872 20.2569 18.8848 20.2569C19.6303 20.2569 20.3245 20.4797 20.9032 20.8635L20.8892 20.8554L20.5788 21.5495C20.1227 21.3442 19.5907 21.2205 19.0307 21.2147H19.0283C19.0003 21.2124 18.9688 21.2112 18.9362 21.2112C18.6095 21.2112 18.3085 21.3255 18.0728 21.5169L18.0752 21.5145C17.8547 21.6977 17.7147 21.9719 17.7135 22.2787C17.7135 22.757 18.0542 23.1677 18.6842 23.5177C19.257 23.8315 20.4143 24.4942 20.4143 24.4942C20.9837 24.829 21.3605 25.438 21.3605 26.1357C21.3605 26.1567 21.3605 26.1789 21.3593 26.1999V26.1964L21.3523 26.194ZM23.7697 26.8135C23.4512 26.1777 23.2657 25.4287 23.2657 24.6365C23.2657 24.5117 23.2703 24.388 23.2797 24.2667L23.2785 24.283C23.2785 22.2522 23.8957 21.2365 25.13 21.2357C25.1603 21.2334 25.1965 21.2322 25.2338 21.2322C25.788 21.2322 26.2745 21.5215 26.551 21.9579L26.5545 21.9637C26.8707 22.596 27.0562 23.3427 27.0562 24.1314C27.0562 24.2527 27.0515 24.3729 27.0433 24.4919L27.0445 24.4755C27.0445 26.5226 26.4273 27.547 25.193 27.5485C25.1615 27.5509 25.1253 27.552 25.0892 27.552C24.535 27.552 24.0473 27.2627 23.7708 26.8264L23.7673 26.8205L23.7697 26.8135ZM28.5693 28.6242L27.0877 27.895C27.223 27.7819 27.3443 27.6629 27.4563 27.5345L27.4598 27.531C28.0583 26.7237 28.4177 25.7075 28.4177 24.6085C28.4177 24.4814 28.413 24.3554 28.4037 24.2305L28.4048 24.2469C28.4048 21.5791 27.3576 20.2444 25.263 20.2429C25.2163 20.2405 25.1615 20.2394 25.1067 20.2394C24.2118 20.2394 23.408 20.6325 22.8608 21.2567L22.8585 21.2602C22.2623 22.0675 21.9042 23.0825 21.9042 24.1815C21.9042 24.3052 21.9088 24.4277 21.9182 24.549L21.917 24.5327C21.9065 24.6505 21.9007 24.7882 21.9007 24.927C21.9007 25.9467 22.2203 26.8917 22.764 27.6675L22.7535 27.6524C23.2773 28.21 24.0205 28.5577 24.843 28.5577C24.92 28.5577 24.9958 28.5542 25.0705 28.5484L25.06 28.5495C25.0705 28.5495 25.0845 28.5495 25.0973 28.5495C25.4602 28.5495 25.8113 28.497 26.1438 28.4002L26.1182 28.4072L28.0502 29.533L28.5752 28.6265L28.5693 28.6242ZM33.4087 28.427H29.5738V20.3654H30.8642V27.4365H33.4087V28.427ZM15.4408 22.4794C15.106 24.9107 14.3395 27.1052 13.2183 29.071L13.265 28.9812C12.8158 29.8457 11.9665 30.4477 10.969 30.5445L10.9573 30.5457C10.6552 30.5294 10.374 30.457 10.1185 30.3392L10.1325 30.345V29.6252C10.2923 29.6497 10.4767 29.6637 10.6645 29.6637C10.675 29.6637 10.6855 29.6637 10.6972 29.6637C10.7158 29.6649 10.7357 29.6649 10.7567 29.6649C11.0938 29.6649 11.403 29.5424 11.641 29.3382L11.6387 29.3394C11.8953 29.1282 12.0598 28.8132 12.0692 28.4585C12.0073 27.9475 11.8895 27.4809 11.7203 27.041L11.7343 27.0807L10.2562 22.4794H11.5827L12.6432 25.9199C12.8322 26.4052 12.9418 26.9675 12.9418 27.5544C12.9418 27.5555 12.9418 27.5567 12.9418 27.5567C13.5042 26.0844 13.9312 24.367 14.1482 22.5855L14.1587 22.4782L15.4408 22.4794ZM9.58416 28.427H8.23316C8.19505 26.2796 8.06399 24.1364 7.83999 21.9975H7.82832L5.77266 28.427H4.74482L2.70315 21.9975H2.68915C2.52971 24.1372 2.43482 26.2804 2.40449 28.427H1.17249C1.2526 25.5609 1.45171 22.8733 1.76982 20.3642H3.44632L5.39232 26.2897H5.40399L7.36749 20.3642H8.96349C9.3166 23.3019 9.52466 25.9895 9.58766 28.427H9.58416ZM25.0892 9.19221C25.0868 9.19221 25.0833 9.19221 25.0798 9.19221C24.941 9.19221 24.8068 9.20971 24.6785 9.24237L24.6902 9.24004V9.25871H24.71C24.8103 9.40804 24.913 9.53754 25.0238 9.65887L25.0215 9.65654C25.0997 9.81287 25.1673 9.96804 25.2455 10.1232L25.2653 10.101C25.3925 10.0007 25.473 9.84671 25.473 9.67404C25.473 9.65304 25.4718 9.63321 25.4695 9.61221V9.61454C25.4112 9.54571 25.403 9.47804 25.3528 9.41037C25.2945 9.31237 25.1697 9.26454 25.0903 9.18754L25.0892 9.19221Z" fill="#E8E8E3"/>
</svg>
