<svg width="30" height="30" viewBox="0 0 30 30" fill="none" xmlns="http://www.w3.org/2000/svg">
<path d="M25.0457 20.3193C21.9852 24.3963 15.4501 23.0203 11.2591 23.2174C11.2591 23.2174 10.5166 23.2596 9.77036 23.3823C9.77036 23.3823 10.053 23.262 10.4137 23.1368C13.3565 22.1191 14.7473 21.9146 16.536 20.9961C19.8953 19.2755 23.2397 15.5258 23.9202 11.631C22.641 15.377 18.7511 18.6012 15.2096 19.9102C12.7863 20.8052 8.40186 21.6754 8.40062 21.6754C8.34105 21.6449 8.28196 21.6135 8.22336 21.5812C5.24216 20.1309 5.15539 13.6726 10.5711 11.5914C12.9462 10.679 15.2158 11.1798 17.783 10.5687C20.52 9.91792 23.6909 7.86642 24.9788 5.18396C26.4229 9.47044 28.1583 16.1741 25.0457 20.3193ZM25.0978 3.8576C24.7516 4.68781 24.3084 5.4742 23.7776 6.20041C22.6238 5.01122 21.2429 4.06587 19.7168 3.42047C18.1907 2.77507 16.5505 2.44275 14.8936 2.44324C8.04734 2.44324 2.47913 8.01145 2.47913 14.8564C2.47833 16.5639 2.83088 18.253 3.5146 19.8176C4.19832 21.3821 5.19843 22.7883 6.45199 23.9475L6.7247 24.188C6.52593 23.9889 6.41436 23.719 6.41454 23.4377C6.41471 23.1563 6.52661 22.8866 6.72563 22.6877C6.92465 22.4889 7.1945 22.3772 7.47584 22.3772C7.75718 22.3773 8.02698 22.4891 8.22592 22.688C8.42486 22.887 8.53664 23.1568 8.5367 23.4381C8.53676 23.7194 8.42508 23.9893 8.22623 24.1883C8.02737 24.3873 7.75762 24.4992 7.47628 24.4994C7.19493 24.4996 6.92504 24.388 6.72594 24.1892L6.91064 24.3529C9.14239 26.2397 11.9711 27.2737 14.8936 27.2709C21.4361 27.2709 26.8097 22.1786 27.2696 15.7526C27.6092 12.6053 26.6795 8.60892 25.0978 3.8576Z" fill="#E8E8E3"/>
</svg>
