<svg width="29" height="29" viewBox="0 0 29 29" fill="none" xmlns="http://www.w3.org/2000/svg">
<path d="M8.08216 12.3028C8.92031 8.95023 11.0157 7.27393 14.3683 7.27393C19.3972 7.27393 20.0258 11.0456 22.5403 11.6742C24.2166 12.0933 25.6833 11.4647 26.9406 9.78838C26.1024 13.141 24.007 14.8173 20.6544 14.8173C15.6255 14.8173 14.9969 11.0456 12.4825 10.417C10.8062 9.99792 9.33939 10.6265 8.08216 12.3028ZM1.79602 19.8462C2.63417 16.4936 4.72955 14.8173 8.08216 14.8173C13.1111 14.8173 13.7397 18.589 16.2541 19.2176C17.9304 19.6367 19.3972 19.008 20.6544 17.3317C19.8163 20.6844 17.7209 22.3607 14.3683 22.3607C9.33939 22.3607 8.71077 18.589 6.19632 17.9604C4.52001 17.5413 3.05325 18.1699 1.79602 19.8462Z" fill="#4B676E"/>
</svg>
