<svg width="300" height="57" viewBox="0 0 300 57" fill="none" xmlns="http://www.w3.org/2000/svg">
<path d="M-1.43051e-05 43.5V1.5H8.09999V37.2H26.52V43.5H-1.43051e-05ZM44.557 44.22C42.117 44.22 40.017 43.72 38.257 42.72C36.537 41.68 35.217 40.18 34.297 38.22C33.377 36.22 32.917 33.76 32.917 30.84V13.26H41.017V30C41.017 32.44 41.517 34.28 42.517 35.52C43.557 36.76 45.137 37.38 47.257 37.38C48.617 37.38 49.817 37.08 50.857 36.48C51.897 35.84 52.717 34.94 53.317 33.78C53.957 32.58 54.277 31.12 54.277 29.4V13.26H62.317V43.5H55.237L54.577 38.58C53.697 40.3 52.397 41.68 50.677 42.72C48.957 43.72 46.917 44.22 44.557 44.22ZM70.4297 43.5V13.26H78.5297V43.5H70.4297ZM74.5097 9.12C73.0697 9.12 71.8697 8.7 70.9097 7.86C69.9897 6.98 69.5297 5.88 69.5297 4.56C69.5297 3.24 69.9897 2.16 70.9097 1.32C71.8697 0.439999 73.0697 -1.43051e-06 74.5097 -1.43051e-06C75.9897 -1.43051e-06 77.1897 0.439999 78.1097 1.32C79.0697 2.16 79.5497 3.24 79.5497 4.56C79.5497 5.88 79.0697 6.98 78.1097 7.86C77.1897 8.7 75.9897 9.12 74.5097 9.12ZM84.7345 43.5V37.02L99.9745 19.98H84.9145V13.26H109.275V19.8L93.9145 36.78H109.575V43.5H84.7345ZM130.43 43.5V1.5H157.79V8.04H138.53V19.26H153.95V25.62H138.53V43.5H130.43ZM176.527 44.22C173.487 44.22 170.787 43.58 168.427 42.3C166.107 40.98 164.287 39.16 162.967 36.84C161.687 34.48 161.047 31.76 161.047 28.68C161.047 25.52 161.687 22.74 162.967 20.34C164.287 17.9 166.107 16 168.427 14.64C170.747 13.24 173.447 12.54 176.527 12.54C179.527 12.54 182.147 13.2 184.387 14.52C186.627 15.84 188.367 17.62 189.607 19.86C190.847 22.1 191.467 24.64 191.467 27.48C191.467 27.88 191.467 28.34 191.467 28.86C191.467 29.34 191.427 29.84 191.347 30.36H166.807V25.44H183.307C183.187 23.48 182.487 21.94 181.207 20.82C179.967 19.7 178.407 19.14 176.527 19.14C175.167 19.14 173.907 19.46 172.747 20.1C171.587 20.7 170.667 21.64 169.987 22.92C169.347 24.2 169.027 25.82 169.027 27.78V29.52C169.027 31.16 169.327 32.6 169.927 33.84C170.567 35.04 171.447 35.98 172.567 36.66C173.687 37.3 174.987 37.62 176.467 37.62C177.947 37.62 179.167 37.3 180.127 36.66C181.127 36.02 181.867 35.2 182.347 34.2H190.627C190.067 36.08 189.127 37.78 187.807 39.3C186.487 40.82 184.867 42.02 182.947 42.9C181.027 43.78 178.887 44.22 176.527 44.22ZM198.101 43.5V0.299998H206.201V43.5H198.101ZM214.277 43.5V13.26H222.377V43.5H214.277ZM218.357 9.12C216.917 9.12 215.717 8.7 214.757 7.86C213.837 6.98 213.377 5.88 213.377 4.56C213.377 3.24 213.837 2.16 214.757 1.32C215.717 0.439999 216.917 -1.43051e-06 218.357 -1.43051e-06C219.837 -1.43051e-06 221.037 0.439999 221.957 1.32C222.917 2.16 223.397 3.24 223.397 4.56C223.397 5.88 222.917 6.98 221.957 7.86C221.037 8.7 219.837 9.12 218.357 9.12ZM230.562 56.7V13.26H237.762L238.662 17.46C239.302 16.58 240.062 15.78 240.942 15.06C241.822 14.3 242.862 13.7 244.062 13.26C245.302 12.78 246.742 12.54 248.382 12.54C251.222 12.54 253.722 13.24 255.882 14.64C258.042 16.04 259.742 17.94 260.982 20.34C262.262 22.7 262.902 25.4 262.902 28.44C262.902 31.48 262.262 34.2 260.982 36.6C259.702 38.96 257.982 40.82 255.822 42.18C253.662 43.54 251.202 44.22 248.442 44.22C246.202 44.22 244.262 43.82 242.622 43.02C241.022 42.18 239.702 41.04 238.662 39.6V56.7H230.562ZM246.522 37.14C248.122 37.14 249.522 36.78 250.722 36.06C251.962 35.34 252.922 34.32 253.602 33C254.282 31.68 254.622 30.16 254.622 28.44C254.622 26.72 254.282 25.2 253.602 23.88C252.922 22.52 251.962 21.48 250.722 20.76C249.522 20 248.122 19.62 246.522 19.62C244.962 19.62 243.562 20 242.322 20.76C241.122 21.48 240.162 22.5 239.442 23.82C238.762 25.14 238.422 26.66 238.422 28.38C238.422 30.1 238.762 31.64 239.442 33C240.162 34.32 241.122 35.34 242.322 36.06C243.562 36.78 244.962 37.14 246.522 37.14ZM284.399 44.22C281.359 44.22 278.659 43.58 276.299 42.3C273.979 40.98 272.159 39.16 270.839 36.84C269.559 34.48 268.919 31.76 268.919 28.68C268.919 25.52 269.559 22.74 270.839 20.34C272.159 17.9 273.979 16 276.299 14.64C278.619 13.24 281.319 12.54 284.399 12.54C287.399 12.54 290.019 13.2 292.259 14.52C294.499 15.84 296.239 17.62 297.479 19.86C298.719 22.1 299.339 24.64 299.339 27.48C299.339 27.88 299.339 28.34 299.339 28.86C299.339 29.34 299.299 29.84 299.219 30.36H274.679V25.44H291.179C291.059 23.48 290.359 21.94 289.079 20.82C287.839 19.7 286.279 19.14 284.399 19.14C283.039 19.14 281.779 19.46 280.619 20.1C279.459 20.7 278.539 21.64 277.859 22.92C277.219 24.2 276.899 25.82 276.899 27.78V29.52C276.899 31.16 277.199 32.6 277.799 33.84C278.439 35.04 279.319 35.98 280.439 36.66C281.559 37.3 282.859 37.62 284.339 37.62C285.819 37.62 287.039 37.3 287.999 36.66C288.999 36.02 289.739 35.2 290.219 34.2H298.499C297.939 36.08 296.999 37.78 295.679 39.3C294.359 40.82 292.739 42.02 290.819 42.9C288.899 43.78 286.759 44.22 284.399 44.22Z" fill="#2F4858"/>
</svg>
