<svg width="32" height="32" viewBox="0 0 32 32" fill="none" xmlns="http://www.w3.org/2000/svg">
<path d="M16.0175 20.5837C15.9175 24.1412 16.0425 27.7237 16.39 28.5837C16.7375 29.4437 17.4837 31.1462 20.0475 30.5987C22.1887 30.1399 22.9687 29.2512 23.3062 27.2899L24.0975 21.0187M12.945 2.74995C12.945 2.74995 1.33997 -1.99504 1.87997 8.7912C1.99497 11.0862 5.16747 26.1662 8.95498 21.6037C10.3375 19.9374 11.5875 18.6337 11.5875 18.6337M19.2125 1.8837C18.8125 2.0087 25.6675 -0.622545 29.565 4.3562C30.94 6.11495 29.3462 13.3024 25.53 18.9649" stroke="#E8E8E3" stroke-linecap="round" stroke-linejoin="round"/>
<path d="M25.5312 18.9625C25.5312 18.9625 25.7812 20.1874 29.4062 19.4399C30.99 19.1125 30.0362 20.3574 28.4312 21.1024C27.1137 21.7149 24.1587 21.8712 24.11 21.0274C23.985 18.8462 25.665 19.5087 25.5437 18.9625C25.4337 18.47 24.6812 17.9875 24.1862 16.7825C23.7525 15.7325 18.2362 7.66996 25.7162 8.86621C25.9912 8.80996 23.7662 1.74122 16.7662 1.63872C9.76623 1.53622 9.98748 10.245 9.98748 10.245" stroke="#E8E8E3" stroke-linecap="round" stroke-linejoin="bevel"/>
<path d="M14.0588 19.71C13.0838 20.8 13.3713 20.9912 11.4213 21.3925C9.44882 21.7987 10.6088 22.5225 11.3638 22.7125C12.2813 22.9425 14.4038 23.2674 15.8388 21.2587C16.2763 20.6462 15.8363 19.6712 15.2363 19.4237C14.9463 19.3037 14.5588 19.1537 14.0613 19.7112L14.0588 19.71Z" stroke="#E8E8E3" stroke-linejoin="round"/>
<path d="M13.995 19.6912C13.895 19.05 14.205 18.2888 14.5363 17.3963C15.0338 16.0588 16.1813 14.7213 15.2638 10.475C14.58 7.31251 9.98877 9.81626 9.98877 10.245C9.98877 10.6738 10.1963 12.42 9.91377 14.4513C9.54252 17.1038 11.6013 19.3462 13.9713 19.1175" stroke="#E8E8E3" stroke-linecap="round" stroke-linejoin="round"/>
<path d="M12.9025 10.1812C12.8812 10.3275 13.1712 10.7187 13.5475 10.7712C13.9237 10.8237 14.245 10.5187 14.2662 10.3712C14.2875 10.2237 13.9975 10.0637 13.6212 10.0112C13.245 9.95871 12.9212 10.0362 12.9025 10.1812Z" fill="#E8E8E3" stroke="#E8E8E3"/>
<path d="M24.3574 9.8825C24.3774 10.0288 24.0887 10.42 23.7124 10.4725C23.3362 10.525 23.0124 10.22 22.9937 10.0725C22.9749 9.925 23.2624 9.765 23.6387 9.7125C24.0149 9.66 24.3387 9.7375 24.3574 9.8825Z" fill="#E8E8E3" stroke="#E8E8E3"/>
<path d="M25.7024 8.86865C25.7649 10.0187 25.4549 10.7999 25.4149 12.0237C25.3574 13.8011 26.2624 15.8361 24.8987 17.8736" stroke="#E8E8E3" stroke-linecap="round" stroke-linejoin="round"/>
</svg>
