<svg width="30" height="27" viewBox="0 0 30 27" fill="none" xmlns="http://www.w3.org/2000/svg">
<g clip-path="url(#clip0_49_229)">
<path d="M29.1864 11.5174L23.3973 1.57263C22.8962 0.709113 21.6635 0 20.6555 0H9.08888C8.0866 0 6.84815 0.709113 6.34701 1.57263L0.563722 11.5174C0.0625809 12.3809 0.0625809 13.7934 0.563722 14.6569L6.34701 24.6074C6.84815 25.4709 8.08084 26.18 9.08888 26.18H20.6612C21.6635 26.18 22.8962 25.4709 23.4031 24.6074L29.1864 14.6569C29.6875 13.7934 29.6875 12.3809 29.1864 11.5174ZM13.6222 5.50135C13.6222 4.84942 14.1579 4.31758 14.8146 4.31758C15.4712 4.31758 16.0069 4.84942 16.0069 5.50135V12.5753C16.0069 13.2272 15.4712 13.7591 14.8146 13.7591C14.1579 13.7591 13.6222 13.2272 13.6222 12.5753V5.50135ZM14.8146 20.6043C10.3561 20.6043 6.72718 17.0016 6.72718 12.5753C6.73294 10.0362 7.9426 7.65156 9.99324 6.1304C10.4656 5.78156 11.128 5.87878 11.4794 6.34771C11.8308 6.81664 11.7328 7.47428 11.2605 7.82312C8.61654 9.77318 8.06356 13.4846 10.0278 16.1095C11.992 18.7343 15.7304 19.2833 18.3744 17.3332C19.8893 16.2181 20.7822 14.451 20.7822 12.5753C20.7764 10.6939 19.8778 8.92682 18.3514 7.80596C17.879 7.46284 17.7811 6.79948 18.1267 6.33055C18.4723 5.86162 19.1405 5.7644 19.6129 6.10752C21.6808 7.62297 22.8962 10.0248 22.902 12.5753C22.902 17.0073 19.273 20.6043 14.8146 20.6043Z" fill="#E8E8E3"/>
</g>
<defs>
<clipPath id="clip0_49_229">
<rect width="29.75" height="26.18" rx="8" fill="white"/>
</clipPath>
</defs>
</svg>
