<svg width="32" height="32" viewBox="0 0 32 32" fill="none" xmlns="http://www.w3.org/2000/svg">
<rect width="32" height="32" rx="16" fill="#E8E8E3"/>
<path d="M14.136 18.184H15.666V22H6.648V20.704L8.268 20.236L7.98 20.74V10.66L8.268 11.146L6.648 10.714V9.418L11.994 9.328V10.624L10.284 11.146L10.554 10.66V20.542L10.158 20.146H14.082L13.722 20.56L14.136 18.184ZM16.6851 22V20.704L18.2871 20.236L18.0171 20.614V10.66L18.3771 11.182L16.6851 10.714V9.418L20.5371 9.328H25.7751V12.604H24.2451L23.9031 10.912L24.3711 11.182H20.1951L20.5911 10.786V15.088L20.1951 14.728H24.3891V16.582H20.1951L20.5911 16.168V20.614L20.2671 20.236L22.2291 20.704V22H16.6851Z" fill="#2F4858"/>
</svg>
