<svg width="40" height="45" viewBox="0 0 40 45" fill="none" xmlns="http://www.w3.org/2000/svg">
<g clip-path="url(#clip0_147_6)">
<path d="M39.9327 13.2361C39.9323 12.4815 39.7709 11.8147 39.4445 11.2424C39.1239 10.6796 38.6437 10.208 37.9997 9.83505C32.6833 6.76988 27.3617 3.7141 22.047 0.645809C20.6142 -0.181296 19.225 -0.151143 17.8028 0.687836C15.6867 1.93568 5.09219 8.00492 1.93516 9.83333C0.635 10.5859 0.00234375 11.7377 0.00203125 13.2347C0 19.3989 0.00203125 25.563 0 31.7274C0.0003125 32.4654 0.154844 33.1193 0.466875 33.683C0.787656 34.2628 1.27453 34.7474 1.93344 35.1288C5.09062 36.9572 15.6866 43.0259 17.8022 44.2741C19.225 45.1136 20.6142 45.1436 22.0475 44.3161C27.3623 41.2477 32.6842 38.1921 38.0014 35.1269C38.6603 34.7457 39.1472 34.2607 39.468 33.6814C39.7795 33.1177 39.9344 32.4639 39.9347 31.7257C39.9347 31.7257 39.9347 19.4005 39.9327 13.2361Z" fill="#E8E8E3"/>
<path d="M20.0284 22.4211L0.466797 33.6831C0.787578 34.2629 1.27445 34.7476 1.93336 35.1289C5.09055 36.9573 15.6865 43.0261 17.8021 44.2743C19.2249 45.1137 20.6141 45.1437 22.0474 44.3163C27.3623 41.2479 32.6841 38.1922 38.0013 35.1271C38.6602 34.7458 39.1471 34.2609 39.4679 33.6816L20.0284 22.4211Z" fill="#E8E8E3"/>
<path d="M14.2346 25.7571C15.3729 27.744 17.5127 29.0842 19.9674 29.0842C22.4373 29.0842 24.5893 27.727 25.7218 25.7188L20.0285 22.4211L14.2346 25.7571Z" fill="#E8E8E3"/>
<path d="M39.9325 13.2361C39.9322 12.4815 39.7708 11.8147 39.4444 11.2424L20.0283 22.421L39.4678 33.6814C39.7794 33.1177 39.9343 32.4639 39.9346 31.7257C39.9346 31.7257 39.9346 19.4005 39.9325 13.2361Z" fill="#E8E8E3"/>
<path d="M38.8637 23.2259H37.3446V24.7451H35.8252V23.2259H34.3063V21.7071H35.8252V20.1882H37.3446V21.7071H38.8637V23.2259ZM33.3207 23.2259H31.8018V24.7451H30.2827V23.2259H28.7637V21.7071H30.2827V20.1882H31.8018V21.7071H33.3207V23.2259Z" fill="#4B676E"/>
<path d="M25.7217 25.7186C24.5892 27.7268 22.4371 29.084 19.9673 29.084C17.5126 29.084 15.3728 27.7438 14.2345 25.7569C13.6627 24.7598 13.3624 23.6303 13.3635 22.4809C13.3635 18.8343 16.3203 15.878 19.9673 15.878C22.4062 15.878 24.5348 17.2015 25.6787 19.1681L31.4507 15.8447C29.1565 11.8848 24.8732 9.2207 19.9673 9.2207C12.6429 9.2207 6.70557 15.1576 6.70557 22.4809C6.70557 24.8835 7.34479 27.1366 8.46197 29.08C10.7504 33.0608 15.0459 35.7413 19.9673 35.7413C24.8978 35.7413 29.1999 33.05 31.4851 29.0575L25.7217 25.7186Z" fill="#4B676E"/>
</g>
<defs>
<clipPath id="clip0_147_6">
<rect width="40" height="45" fill="white"/>
</clipPath>
</defs>
</svg>
