<svg width="29" height="29" viewBox="0 0 29 29" fill="none" xmlns="http://www.w3.org/2000/svg">
<g clip-path="url(#clip0_49_246)">
<path fill-rule="evenodd" clip-rule="evenodd" d="M22.2222 26.7225C19.6923 26.7225 18.057 25.5164 17.2596 23.939L19.4777 22.6542C20.062 23.6081 20.8202 24.3085 22.1642 24.3085C23.2921 24.3085 24.0126 23.7442 24.0126 22.9656C24.0126 21.7942 22.4498 21.3365 21.3465 20.8639C19.3806 20.0274 18.0758 18.9763 18.0758 16.7567C18.0758 14.7139 19.6329 13.157 22.0671 13.157C23.7981 13.157 25.0449 13.76 25.9394 15.3359L23.8183 16.6986C23.3515 15.8621 22.8456 15.5313 22.0671 15.5313C21.2682 15.5313 20.7623 16.0375 20.7623 16.6986C20.7623 17.5163 21.2682 17.847 22.4368 18.353C24.8854 19.4026 26.7382 20.2272 26.7382 22.9267C26.7382 25.3797 24.8115 26.7225 22.2222 26.7225ZM15.9475 22.6152C15.9475 25.4379 14.2092 26.9299 11.7954 26.9299C9.61489 26.9299 8.30866 26.096 7.66641 24.6462H7.64468H7.63451H7.62871L9.84541 23.0966C10.2731 23.8548 10.6588 24.3928 11.5924 24.3928C12.4884 24.3928 13.048 23.9391 13.048 22.5777V13.048H15.9475V22.6152ZM0 28.9955H28.9955V0H0V28.9955Z" fill="#E8E8E3"/>
</g>
<defs>
<clipPath id="clip0_49_246">
<rect width="28.9955" height="28.9955" rx="4" fill="white"/>
</clipPath>
</defs>
</svg>
