<svg width="29" height="33" viewBox="0 0 29 33" fill="none" xmlns="http://www.w3.org/2000/svg">
<g clip-path="url(#clip0_49_235)">
<path d="M28.7366 16.287C28.7366 14.3935 26.3527 12.5992 22.6976 11.4864C23.5411 7.78115 23.1662 4.83324 21.5144 3.88945C21.1337 3.66806 20.6885 3.5632 20.2023 3.5632V4.86237C20.4718 4.86237 20.6885 4.91481 20.8701 5.01385C21.6667 5.46827 22.0123 7.19856 21.7428 9.42405C21.6784 9.97168 21.573 10.5484 21.4441 11.1369C20.2961 10.8572 19.0426 10.6417 17.7246 10.5018C16.9339 9.42405 16.1138 8.4453 15.2879 7.58889C17.1975 5.82365 18.9898 4.85655 20.2082 4.85655V3.55737C18.5974 3.55737 16.4887 4.69925 14.3566 6.68005C12.2245 4.7109 10.1158 3.58068 8.50501 3.58068V4.87985C9.7175 4.87985 11.5157 5.84112 13.4253 7.59472C12.6052 8.45112 11.7852 9.42405 11.0061 10.5018C9.68236 10.6417 8.42887 10.8572 7.28081 11.1427C7.14608 10.5601 7.04651 9.99499 6.97622 9.45318C6.70092 7.22769 7.04065 5.4974 7.83141 5.03715C8.00713 4.93228 8.23557 4.88568 8.50501 4.88568V3.5865C8.01299 3.5865 7.56782 3.69137 7.18123 3.91275C5.53529 4.85655 5.16627 7.79862 6.0156 11.4922C2.37227 12.6108 0 14.3994 0 16.287C0 18.1804 2.38398 19.9747 6.03903 21.0875C5.19555 24.7928 5.57043 27.7407 7.22223 28.6845C7.60297 28.9058 8.04813 29.0107 8.54016 29.0107C10.151 29.0107 12.2596 27.8688 14.3917 25.888C16.5239 27.8572 18.6325 28.9874 20.2433 28.9874C20.7354 28.9874 21.1805 28.8825 21.5671 28.6611C23.2131 27.7174 23.5821 24.7753 22.7327 21.0817C26.3644 19.9689 28.7366 18.1745 28.7366 16.287ZM21.1102 12.4011C20.8935 13.1526 20.6241 13.9275 20.3195 14.7023C20.0793 14.2362 19.8275 13.7702 19.5522 13.3041C19.2827 12.838 18.9957 12.3836 18.7087 11.9408C19.5404 12.0632 20.3429 12.2147 21.1102 12.4011ZM18.4275 18.6057C17.9706 19.3922 17.5021 20.1379 17.0159 20.8311C16.1431 20.9069 15.2586 20.9477 14.3683 20.9477C13.4838 20.9477 12.5994 20.9069 11.7325 20.837C11.2463 20.1437 10.7718 19.4038 10.315 18.6231C9.8698 17.8599 9.46563 17.0851 9.09661 16.3044C9.45978 15.5238 9.8698 14.7431 10.3091 13.9799C10.766 13.1934 11.2346 12.4477 11.7207 11.7544C12.5935 11.6787 13.478 11.6379 14.3683 11.6379C15.2528 11.6379 16.1373 11.6787 17.0042 11.7486C17.4903 12.4419 17.9648 13.1818 18.4217 13.9624C18.8668 14.7256 19.271 15.5005 19.64 16.2811C19.271 17.0618 18.8668 17.8425 18.4275 18.6057ZM20.3195 17.8483C20.6358 18.629 20.9052 19.4096 21.1278 20.167C20.3605 20.3534 19.5522 20.5107 18.7145 20.6331C19.0016 20.1845 19.2886 19.7242 19.558 19.2523C19.8275 18.7863 20.0793 18.3144 20.3195 17.8483ZM14.38 24.0645C13.8353 23.5052 13.2905 22.8819 12.7517 22.2002C13.2788 22.2235 13.8177 22.241 14.3625 22.241C14.9131 22.241 15.4578 22.2294 15.9908 22.2002C15.4637 22.8819 14.9189 23.5052 14.38 24.0645ZM10.0221 20.6331C9.19033 20.5107 8.38786 20.3593 7.62054 20.1728C7.83726 19.4213 8.10671 18.6464 8.41129 17.8716C8.65145 18.3377 8.90332 18.8037 9.17862 19.2698C9.45392 19.7359 9.73507 20.1903 10.0221 20.6331ZM14.3507 8.50938C14.8955 9.06867 15.4402 9.69204 15.9791 10.3737C15.4519 10.3504 14.9131 10.3329 14.3683 10.3329C13.8177 10.3329 13.273 10.3445 12.7399 10.3737C13.2671 9.69204 13.8119 9.06867 14.3507 8.50938ZM10.0162 11.9408C9.72922 12.3894 9.4422 12.8497 9.17276 13.3216C8.90332 13.7876 8.65145 14.2537 8.41129 14.7198C8.09499 13.9391 7.82555 13.1584 7.60297 12.4011C8.37029 12.2205 9.17862 12.0632 10.0162 11.9408ZM4.71525 19.2349C2.64171 18.3551 1.30035 17.2016 1.30035 16.287C1.30035 15.3723 2.64171 14.2129 4.71525 13.339C5.21899 13.1235 5.76958 12.9312 6.33776 12.7506C6.67163 13.8925 7.11094 15.081 7.65568 16.2986C7.1168 17.5104 6.68335 18.693 6.35533 19.8291C5.77544 19.6485 5.22484 19.4504 4.71525 19.2349ZM7.86655 27.5601C7.06994 27.1056 6.72435 25.3753 6.99379 23.1499C7.05822 22.6022 7.16366 22.0255 7.29252 21.437C8.44058 21.7167 9.69407 21.9322 11.012 22.0721C11.8028 23.1499 12.6228 24.1286 13.4487 24.985C11.5392 26.7503 9.74679 27.7174 8.52844 27.7174C8.26486 27.7115 8.04227 27.6591 7.86655 27.5601ZM21.7604 23.1207C22.0357 25.3462 21.696 27.0765 20.9052 27.5368C20.7295 27.6416 20.5011 27.6882 20.2316 27.6882C19.0191 27.6882 17.2209 26.727 15.3114 24.9734C16.1314 24.117 16.9515 23.144 17.7305 22.0662C19.0543 21.9264 20.3078 21.7109 21.4558 21.4254C21.5905 22.0138 21.696 22.5789 21.7604 23.1207ZM24.0155 19.2349C23.5118 19.4504 22.9612 19.6427 22.393 19.8233C22.0591 18.6814 21.6198 17.4929 21.0751 16.2753C21.614 15.0635 22.0474 13.8809 22.3754 12.7448C22.9553 12.9254 23.5059 13.1235 24.0214 13.339C26.0949 14.2188 27.4363 15.3723 27.4363 16.287C27.4304 17.2016 26.0891 18.361 24.0155 19.2349Z" fill="#E8E8E3"/>
<path d="M14.3624 18.9494C15.8408 18.9494 17.0393 17.7574 17.0393 16.2869C17.0393 14.8165 15.8408 13.6245 14.3624 13.6245C12.884 13.6245 11.6855 14.8165 11.6855 16.2869C11.6855 17.7574 12.884 18.9494 14.3624 18.9494Z" fill="#E8E8E3"/>
</g>
<defs>
<clipPath id="clip0_49_235">
<rect width="28.7366" height="32.5682" fill="white"/>
</clipPath>
</defs>
</svg>
