<svg width="240" height="130" viewBox="0 0 240 130" fill="none" xmlns="http://www.w3.org/2000/svg">
<path d="M7.13704 125.967V115.352H3.42488V113.133H13.5922V115.352H9.88001V125.967H7.13704Z" fill="#E8E8E3"/>
<path d="M18.1556 126.187C17.2048 126.187 16.3697 125.991 15.6504 125.6C14.9311 125.197 14.3642 124.641 13.9498 123.932C13.5475 123.211 13.3463 122.386 13.3463 121.457C13.3463 120.503 13.5475 119.654 13.9498 118.908C14.3521 118.163 14.9128 117.576 15.6321 117.148C16.3514 116.721 17.1865 116.507 18.1374 116.507C19.0639 116.507 19.8746 116.708 20.5695 117.112C21.2644 117.515 21.8068 118.065 22.197 118.762C22.5993 119.446 22.8004 120.241 22.8004 121.145C22.8004 121.267 22.7943 121.408 22.7821 121.567C22.7821 121.713 22.7699 121.866 22.7456 122.025H15.303V120.43H20.0026C19.9782 119.917 19.7892 119.507 19.4357 119.202C19.0944 118.884 18.6677 118.725 18.1556 118.725C17.7655 118.725 17.412 118.817 17.095 119C16.7781 119.183 16.5221 119.458 16.327 119.825C16.1441 120.192 16.0527 120.656 16.0527 121.218V121.768C16.0527 122.196 16.1319 122.575 16.2904 122.905C16.4611 123.235 16.6988 123.492 17.0036 123.675C17.3206 123.858 17.6924 123.95 18.1191 123.95C18.5214 123.95 18.8505 123.871 19.1065 123.712C19.3747 123.541 19.582 123.327 19.7283 123.07H22.5261C22.3554 123.657 22.0629 124.188 21.6484 124.665C21.2339 125.129 20.7279 125.502 20.1306 125.783C19.5332 126.052 18.8749 126.187 18.1556 126.187Z" fill="#E8E8E3"/>
<path d="M28.6577 126.187C27.7921 126.187 27.0424 126.052 26.4084 125.783C25.7867 125.502 25.2929 125.123 24.9272 124.647C24.5737 124.17 24.3725 123.632 24.3238 123.033H27.0485C27.0972 123.241 27.1826 123.431 27.3045 123.602C27.4386 123.761 27.6153 123.889 27.8348 123.987C28.0664 124.072 28.3224 124.115 28.6028 124.115C28.9076 124.115 29.1514 124.078 29.3343 124.005C29.5293 123.919 29.6756 123.809 29.7731 123.675C29.8707 123.541 29.9194 123.4 29.9194 123.253C29.9194 123.021 29.8463 122.844 29.7 122.722C29.5659 122.6 29.3647 122.502 29.0965 122.428C28.8283 122.343 28.5053 122.263 28.1274 122.19C27.6885 122.092 27.2496 121.982 26.8107 121.86C26.384 121.726 26 121.561 25.6587 121.365C25.3295 121.17 25.0613 120.919 24.8541 120.613C24.659 120.296 24.5615 119.911 24.5615 119.458C24.5615 118.908 24.7139 118.413 25.0187 117.973C25.3234 117.521 25.7623 117.167 26.3353 116.91C26.9083 116.641 27.6031 116.507 28.4199 116.507C29.5781 116.507 30.4863 116.763 31.1446 117.277C31.8029 117.79 32.1931 118.481 32.315 119.348H29.7549C29.6817 119.104 29.5293 118.921 29.2977 118.798C29.0661 118.664 28.7735 118.597 28.4199 118.597C28.0176 118.597 27.7129 118.664 27.5056 118.798C27.2984 118.933 27.1947 119.11 27.1947 119.33C27.1947 119.477 27.2618 119.611 27.3959 119.733C27.5422 119.843 27.7494 119.941 28.0176 120.027C28.2858 120.112 28.615 120.198 29.0051 120.283C29.7488 120.442 30.3888 120.613 30.9252 120.797C31.4738 120.98 31.9005 121.249 32.2052 121.603C32.51 121.946 32.6563 122.447 32.6441 123.107C32.6563 123.706 32.4978 124.237 32.1687 124.702C31.8517 125.166 31.3945 125.533 30.7972 125.802C30.1998 126.058 29.4867 126.187 28.6577 126.187Z" fill="#E8E8E3"/>
<path d="M38.7585 125.967C38.088 125.967 37.4968 125.863 36.9847 125.655C36.4727 125.435 36.0765 125.081 35.7961 124.592C35.5157 124.103 35.3755 123.437 35.3755 122.593V119.018H33.8029V116.727H35.3755L35.6681 114.123H38.1185V116.727H40.4774V119.018H38.1185V122.63C38.1185 122.997 38.1977 123.26 38.3562 123.418C38.5269 123.565 38.8134 123.638 39.2157 123.638H40.4774V125.967H38.7585Z" fill="#E8E8E3"/>
<path d="M42.8238 121.713V119.422H50.687V121.713H42.8238Z" fill="#E8E8E3"/>
<path d="M53.3374 125.967V113.133H57.781C59.2683 113.133 60.4935 113.402 61.4566 113.94C62.4319 114.466 63.1512 115.211 63.6144 116.177C64.0899 117.13 64.3276 118.255 64.3276 119.55C64.3276 120.833 64.0899 121.958 63.6144 122.923C63.1512 123.877 62.4319 124.622 61.4566 125.16C60.4935 125.698 59.2683 125.967 57.781 125.967H53.3374ZM56.0804 123.602H57.6165C58.6039 123.602 59.3842 123.443 59.9571 123.125C60.5301 122.795 60.9324 122.331 61.164 121.732C61.4079 121.121 61.5298 120.393 61.5298 119.55C61.5298 118.695 61.4079 117.967 61.164 117.368C60.9324 116.757 60.5301 116.293 59.9571 115.975C59.3842 115.645 58.6039 115.48 57.6165 115.48H56.0804V123.602Z" fill="#E8E8E3"/>
<path d="M66.3371 125.967V116.727H68.7692L69.0252 118.413C69.269 118.022 69.5555 117.686 69.8847 117.405C70.2138 117.124 70.5918 116.904 71.0185 116.745C71.4573 116.586 71.9267 116.507 72.4265 116.507V119.422H71.5122C71.1465 119.422 70.8112 119.465 70.5064 119.55C70.2138 119.623 69.9578 119.752 69.7384 119.935C69.5311 120.118 69.3666 120.369 69.2447 120.687C69.1349 120.992 69.0801 121.377 69.0801 121.842V125.967H66.3371Z" fill="#E8E8E3"/>
<path d="M74.0526 125.967V116.727H76.7956V125.967H74.0526ZM75.4241 115.663C74.9364 115.663 74.5402 115.523 74.2354 115.242C73.9307 114.961 73.7783 114.606 73.7783 114.178C73.7783 113.738 73.9307 113.378 74.2354 113.097C74.5402 112.816 74.9364 112.675 75.4241 112.675C75.9239 112.675 76.3262 112.816 76.631 113.097C76.9479 113.378 77.1064 113.738 77.1064 114.178C77.1064 114.606 76.9479 114.961 76.631 115.242C76.3262 115.523 75.9239 115.663 75.4241 115.663Z" fill="#E8E8E3"/>
<path d="M81.6265 125.967L78.28 116.727H81.1693L83.3088 123.382L85.4483 116.727H88.301L84.9729 125.967H81.6265Z" fill="#E8E8E3"/>
<path d="M93.8731 126.187C92.9222 126.187 92.0871 125.991 91.3679 125.6C90.6486 125.197 90.0817 124.641 89.6672 123.932C89.2649 123.211 89.0638 122.386 89.0638 121.457C89.0638 120.503 89.2649 119.654 89.6672 118.908C90.0695 118.163 90.6303 117.576 91.3496 117.148C92.0689 116.721 92.9039 116.507 93.8548 116.507C94.7814 116.507 95.5921 116.708 96.2869 117.112C96.9818 117.515 97.5243 118.065 97.9144 118.762C98.3167 119.446 98.5179 120.241 98.5179 121.145C98.5179 121.267 98.5118 121.408 98.4996 121.567C98.4996 121.713 98.4874 121.866 98.463 122.025H91.0204V120.43H95.7201C95.6957 119.917 95.5067 119.507 95.1532 119.202C94.8118 118.884 94.3852 118.725 93.8731 118.725C93.483 118.725 93.1295 118.817 92.8125 119C92.4955 119.183 92.2395 119.458 92.0445 119.825C91.8616 120.192 91.7702 120.656 91.7702 121.218V121.768C91.7702 122.196 91.8494 122.575 92.0079 122.905C92.1786 123.235 92.4163 123.492 92.7211 123.675C93.038 123.858 93.4099 123.95 93.8366 123.95C94.2389 123.95 94.568 123.871 94.824 123.712C95.0922 123.541 95.2995 123.327 95.4458 123.07H98.2436C98.0729 123.657 97.7803 124.188 97.3658 124.665C96.9514 125.129 96.4454 125.502 95.8481 125.783C95.2507 126.052 94.5924 126.187 93.8731 126.187Z" fill="#E8E8E3"/>
<path d="M100.535 125.967V116.727H102.931L103.15 118.212C103.43 117.698 103.827 117.289 104.339 116.983C104.851 116.666 105.472 116.507 106.204 116.507C106.972 116.507 107.618 116.672 108.142 117.002C108.666 117.332 109.063 117.808 109.331 118.432C109.611 119.043 109.751 119.795 109.751 120.687V125.967H107.027V120.943C107.027 120.271 106.88 119.752 106.588 119.385C106.307 119.006 105.856 118.817 105.235 118.817C104.869 118.817 104.534 118.908 104.229 119.092C103.936 119.263 103.705 119.513 103.534 119.843C103.363 120.173 103.278 120.571 103.278 121.035V125.967H100.535Z" fill="#E8E8E3"/>
<path d="M116.197 125.967V113.133H120.641C122.128 113.133 123.353 113.402 124.316 113.94C125.292 114.466 126.011 115.211 126.474 116.177C126.95 117.13 127.187 118.255 127.187 119.55C127.187 120.833 126.95 121.958 126.474 122.923C126.011 123.877 125.292 124.622 124.316 125.16C123.353 125.698 122.128 125.967 120.641 125.967H116.197ZM118.94 123.602H120.476C121.464 123.602 122.244 123.443 122.817 123.125C123.39 122.795 123.792 122.331 124.024 121.732C124.268 121.121 124.39 120.393 124.39 119.55C124.39 118.695 124.268 117.967 124.024 117.368C123.792 116.757 123.39 116.293 122.817 115.975C122.244 115.645 121.464 115.48 120.476 115.48H118.94V123.602Z" fill="#E8E8E3"/>
<path d="M133.732 126.187C132.781 126.187 131.946 125.991 131.227 125.6C130.507 125.197 129.941 124.641 129.526 123.932C129.124 123.211 128.923 122.386 128.923 121.457C128.923 120.503 129.124 119.654 129.526 118.908C129.928 118.163 130.489 117.576 131.208 117.148C131.928 116.721 132.763 116.507 133.714 116.507C134.64 116.507 135.451 116.708 136.146 117.112C136.841 117.515 137.383 118.065 137.773 118.762C138.176 119.446 138.377 120.241 138.377 121.145C138.377 121.267 138.371 121.408 138.358 121.567C138.358 121.713 138.346 121.866 138.322 122.025H130.879V120.43H135.579C135.555 119.917 135.366 119.507 135.012 119.202C134.671 118.884 134.244 118.725 133.732 118.725C133.342 118.725 132.988 118.817 132.671 119C132.354 119.183 132.098 119.458 131.903 119.825C131.72 120.192 131.629 120.656 131.629 121.218V121.768C131.629 122.196 131.708 122.575 131.867 122.905C132.037 123.235 132.275 123.492 132.58 123.675C132.897 123.858 133.269 123.95 133.695 123.95C134.098 123.95 134.427 123.871 134.683 123.712C134.951 123.541 135.158 123.327 135.305 123.07H138.102C137.932 123.657 137.639 124.188 137.225 124.665C136.81 125.129 136.304 125.502 135.707 125.783C135.11 126.052 134.451 126.187 133.732 126.187Z" fill="#E8E8E3"/>
<path d="M142.45 125.967L139.104 116.727H141.993L144.133 123.382L146.272 116.727H149.125L145.797 125.967H142.45Z" fill="#E8E8E3"/>
<path d="M154.697 126.187C153.746 126.187 152.911 125.991 152.192 125.6C151.473 125.197 150.906 124.641 150.491 123.932C150.089 123.211 149.888 122.386 149.888 121.457C149.888 120.503 150.089 119.654 150.491 118.908C150.894 118.163 151.454 117.576 152.174 117.148C152.893 116.721 153.728 116.507 154.679 116.507C155.605 116.507 156.416 116.708 157.111 117.112C157.806 117.515 158.348 118.065 158.738 118.762C159.141 119.446 159.342 120.241 159.342 121.145C159.342 121.267 159.336 121.408 159.324 121.567C159.324 121.713 159.311 121.866 159.287 122.025H151.844V120.43H156.544C156.52 119.917 156.331 119.507 155.977 119.202C155.636 118.884 155.209 118.725 154.697 118.725C154.307 118.725 153.953 118.817 153.637 119C153.32 119.183 153.064 119.458 152.868 119.825C152.686 120.192 152.594 120.656 152.594 121.218V121.768C152.594 122.196 152.673 122.575 152.832 122.905C153.003 123.235 153.24 123.492 153.545 123.675C153.862 123.858 154.234 123.95 154.661 123.95C155.063 123.95 155.392 123.871 155.648 123.712C155.916 123.541 156.123 123.327 156.27 123.07H159.068C158.897 123.657 158.604 124.188 158.19 124.665C157.775 125.129 157.269 125.502 156.672 125.783C156.075 126.052 155.416 126.187 154.697 126.187Z" fill="#E8E8E3"/>
<path d="M161.359 125.967V112.767H164.102V125.967H161.359Z" fill="#E8E8E3"/>
<path d="M170.91 126.187C170.02 126.187 169.221 125.979 168.514 125.563C167.807 125.148 167.246 124.579 166.832 123.858C166.417 123.125 166.21 122.294 166.21 121.365C166.21 120.412 166.417 119.575 166.832 118.853C167.246 118.12 167.807 117.546 168.514 117.13C169.233 116.715 170.032 116.507 170.91 116.507C171.812 116.507 172.616 116.715 173.323 117.13C174.03 117.546 174.591 118.12 175.006 118.853C175.42 119.575 175.627 120.406 175.627 121.347C175.627 122.288 175.42 123.125 175.006 123.858C174.591 124.579 174.03 125.148 173.323 125.563C172.616 125.979 171.812 126.187 170.91 126.187ZM170.91 123.803C171.275 123.803 171.598 123.712 171.879 123.528C172.171 123.345 172.403 123.07 172.574 122.703C172.744 122.337 172.83 121.885 172.83 121.347C172.83 120.809 172.744 120.357 172.574 119.99C172.403 119.623 172.177 119.348 171.897 119.165C171.617 118.982 171.294 118.89 170.928 118.89C170.562 118.89 170.233 118.982 169.94 119.165C169.66 119.348 169.434 119.623 169.264 119.99C169.093 120.357 169.008 120.809 169.008 121.347C169.008 121.885 169.093 122.337 169.264 122.703C169.434 123.07 169.66 123.345 169.94 123.528C170.233 123.712 170.556 123.803 170.91 123.803Z" fill="#E8E8E3"/>
<path d="M177.735 130V116.727H180.167L180.478 117.937C180.673 117.68 180.898 117.442 181.154 117.222C181.41 117.002 181.715 116.831 182.069 116.708C182.434 116.574 182.861 116.507 183.349 116.507C184.202 116.507 184.952 116.721 185.598 117.148C186.256 117.576 186.78 118.157 187.17 118.89C187.561 119.611 187.756 120.436 187.756 121.365C187.756 122.294 187.555 123.125 187.152 123.858C186.762 124.579 186.238 125.148 185.58 125.563C184.921 125.979 184.184 126.187 183.367 126.187C182.709 126.187 182.142 126.071 181.666 125.838C181.191 125.606 180.795 125.282 180.478 124.867V130H177.735ZM182.672 123.785C183.111 123.785 183.501 123.687 183.842 123.492C184.196 123.284 184.47 122.997 184.665 122.63C184.86 122.263 184.958 121.842 184.958 121.365C184.958 120.888 184.86 120.467 184.665 120.1C184.47 119.733 184.196 119.446 183.842 119.238C183.501 119.018 183.111 118.908 182.672 118.908C182.221 118.908 181.819 119.018 181.465 119.238C181.124 119.446 180.856 119.733 180.661 120.1C180.465 120.467 180.368 120.882 180.368 121.347C180.368 121.823 180.465 122.245 180.661 122.612C180.856 122.978 181.124 123.266 181.465 123.473C181.819 123.681 182.221 123.785 182.672 123.785Z" fill="#E8E8E3"/>
<path d="M189.86 125.967V116.727H192.256L192.493 117.918C192.786 117.491 193.17 117.148 193.645 116.892C194.133 116.635 194.694 116.507 195.328 116.507C195.779 116.507 196.187 116.568 196.553 116.69C196.919 116.8 197.242 116.971 197.522 117.203C197.803 117.423 198.034 117.705 198.217 118.047C198.571 117.57 199.022 117.197 199.57 116.928C200.119 116.647 200.716 116.507 201.362 116.507C202.191 116.507 202.874 116.672 203.41 117.002C203.959 117.332 204.367 117.808 204.636 118.432C204.904 119.055 205.038 119.813 205.038 120.705V125.967H202.313V120.943C202.313 120.271 202.179 119.752 201.911 119.385C201.655 119.006 201.24 118.817 200.667 118.817C200.302 118.817 199.979 118.908 199.698 119.092C199.418 119.275 199.198 119.532 199.04 119.862C198.894 120.192 198.821 120.589 198.821 121.053V125.967H196.096V120.943C196.096 120.271 195.962 119.752 195.694 119.385C195.425 119.006 194.993 118.817 194.395 118.817C194.054 118.817 193.743 118.908 193.463 119.092C193.194 119.275 192.981 119.532 192.823 119.862C192.676 120.192 192.603 120.589 192.603 121.053V125.967H189.86Z" fill="#E8E8E3"/>
<path d="M211.86 126.187C210.909 126.187 210.074 125.991 209.355 125.6C208.636 125.197 208.069 124.641 207.654 123.932C207.252 123.211 207.051 122.386 207.051 121.457C207.051 120.503 207.252 119.654 207.654 118.908C208.057 118.163 208.617 117.576 209.337 117.148C210.056 116.721 210.891 116.507 211.842 116.507C212.768 116.507 213.579 116.708 214.274 117.112C214.969 117.515 215.511 118.065 215.902 118.762C216.304 119.446 216.505 120.241 216.505 121.145C216.505 121.267 216.499 121.408 216.487 121.567C216.487 121.713 216.475 121.866 216.45 122.025H209.008V120.43H213.707C213.683 119.917 213.494 119.507 213.14 119.202C212.799 118.884 212.372 118.725 211.86 118.725C211.47 118.725 211.117 118.817 210.8 119C210.483 119.183 210.227 119.458 210.032 119.825C209.849 120.192 209.757 120.656 209.757 121.218V121.768C209.757 122.196 209.837 122.575 209.995 122.905C210.166 123.235 210.403 123.492 210.708 123.675C211.025 123.858 211.397 123.95 211.824 123.95C212.226 123.95 212.555 123.871 212.811 123.712C213.079 123.541 213.287 123.327 213.433 123.07H216.231C216.06 123.657 215.767 124.188 215.353 124.665C214.938 125.129 214.433 125.502 213.835 125.783C213.238 126.052 212.58 126.187 211.86 126.187Z" fill="#E8E8E3"/>
<path d="M218.522 125.967V116.727H220.918L221.137 118.212C221.417 117.698 221.814 117.289 222.326 116.983C222.838 116.666 223.459 116.507 224.191 116.507C224.959 116.507 225.605 116.672 226.129 117.002C226.654 117.332 227.05 117.808 227.318 118.432C227.598 119.043 227.739 119.795 227.739 120.687V125.967H225.014V120.943C225.014 120.271 224.868 119.752 224.575 119.385C224.295 119.006 223.843 118.817 223.222 118.817C222.856 118.817 222.521 118.908 222.216 119.092C221.923 119.263 221.692 119.513 221.521 119.843C221.35 120.173 221.265 120.571 221.265 121.035V125.967H218.522Z" fill="#E8E8E3"/>
<path d="M234.338 125.967C233.668 125.967 233.076 125.863 232.564 125.655C232.052 125.435 231.656 125.081 231.376 124.592C231.095 124.103 230.955 123.437 230.955 122.593V119.018H229.383V116.727H230.955L231.248 114.123H233.698V116.727H236.057V119.018H233.698V122.63C233.698 122.997 233.777 123.26 233.936 123.418C234.107 123.565 234.393 123.638 234.795 123.638H236.057V125.967H234.338Z" fill="#E8E8E3"/>
<path d="M27.0168 82.795V14.3117H3.06741V0H68.6628V14.3117H44.7134V82.795H27.0168Z" fill="#E8E8E3"/>
<path d="M79.6817 82.795V0H108.35C117.946 0 125.85 1.73475 132.064 5.20426C138.356 8.59491 142.996 13.4049 145.985 19.6342C149.052 25.7847 150.586 33.0392 150.586 41.3975C150.586 49.677 149.052 56.9314 145.985 63.1608C142.996 69.3113 138.356 74.1213 132.064 77.5908C125.85 81.0603 117.946 82.795 108.35 82.795H79.6817ZM97.3783 67.5371H107.288C113.659 67.5371 118.693 66.512 122.39 64.4618C126.086 62.3328 128.682 59.3364 130.176 55.4727C131.749 51.53 132.536 46.8383 132.536 41.3975C132.536 35.8778 131.749 31.1861 130.176 27.3224C128.682 23.3797 126.086 20.3833 122.39 18.3332C118.693 16.2042 113.659 15.1397 107.288 15.1397H97.3783V67.5371Z" fill="#E8E8E3"/>
<path d="M163.787 82.795V0H192.455C202.051 0 209.955 1.73475 216.169 5.20426C222.461 8.59491 227.101 13.4049 230.09 19.6342C233.157 25.7847 234.691 33.0392 234.691 41.3975C234.691 49.677 233.157 56.9314 230.09 63.1608C227.101 69.3113 222.461 74.1213 216.169 77.5908C209.955 81.0603 202.051 82.795 192.455 82.795H163.787ZM181.483 67.5371H191.393C197.764 67.5371 202.798 66.512 206.494 64.4618C210.191 62.3328 212.787 59.3364 214.281 55.4727C215.854 51.53 216.64 46.8383 216.64 41.3975C216.64 35.8778 215.854 31.1861 214.281 27.3224C212.787 23.3797 210.191 20.3833 206.494 18.3332C202.798 16.2042 197.764 15.1397 191.393 15.1397H181.483V67.5371Z" fill="#E8E8E3"/>
<path d="M0 97.5798H240V103.494H0V97.5798Z" fill="#E8E8E3"/>
</svg>
