<svg width="29" height="29" viewBox="0 0 29 29" fill="none" xmlns="http://www.w3.org/2000/svg">
<g clip-path="url(#clip0_49_239)">
<path d="M0 14.3683V28.7366H14.3683H28.7366V14.3683V-5.91278e-05H14.3683H0V14.3683Z" fill="#E8E8E3"/>
<path d="M6.35468 14.4636L6.34556 15.6404H8.21572L10.0859 15.6404V20.9544V26.2684H11.4087H12.7315V20.9544L12.7315 15.6404H14.6016H16.4718V14.4864C16.4718 13.8478 16.4581 13.3141 16.4399 13.3005C16.4262 13.2822 14.1501 13.2731 11.3904 13.2777L6.36837 13.2913L6.35468 14.4636Z" fill="#4B676E"/>
<path d="M23.1876 13.2579C23.9174 13.4404 24.4739 13.7642 24.9848 14.2934C25.2493 14.5762 25.6416 15.0916 25.6735 15.2148C25.6827 15.2513 24.4328 16.0905 23.6757 16.5604C23.6483 16.5786 23.5388 16.46 23.4157 16.2776C23.0462 15.7393 22.6585 15.5067 22.0655 15.4656C21.1943 15.4063 20.6332 15.8625 20.6378 16.6242C20.6378 16.8477 20.6697 16.98 20.7609 17.1625C20.9525 17.5593 21.3083 17.7965 22.4258 18.28C24.483 19.1649 25.3634 19.7488 25.9107 20.5789C26.522 21.5049 26.6588 22.9828 26.2437 24.0821C25.7876 25.2771 24.6564 26.0891 23.0644 26.3582C22.5718 26.4449 21.4041 26.4312 20.875 26.3354C19.721 26.1301 18.6262 25.56 17.9511 24.8119C17.6866 24.52 17.1711 23.7582 17.2031 23.7035C17.2168 23.6852 17.3354 23.6122 17.4676 23.5347C17.5954 23.4617 18.0789 23.1835 18.535 22.9189L19.3606 22.44L19.5339 22.6954C19.7757 23.0649 20.3048 23.5712 20.6241 23.74C21.5409 24.2235 22.7999 24.1551 23.4202 23.5986C23.6848 23.3568 23.7943 23.1059 23.7943 22.7365C23.7943 22.4035 23.7532 22.2575 23.5799 22.0066C23.3564 21.6874 22.9002 21.4182 21.6048 20.8572C20.1224 20.2186 19.4838 19.8218 18.8999 19.1923C18.5624 18.8274 18.2431 18.2435 18.1108 17.7554C18.0013 17.3495 17.9739 16.3323 18.0606 15.9218C18.3662 14.4895 19.4473 13.4906 21.0073 13.1941C21.5136 13.0983 22.6904 13.1348 23.1876 13.2579Z" fill="#4B676E"/>
</g>
<defs>
<clipPath id="clip0_49_239">
<rect width="28.7366" height="28.7366" rx="4" fill="white"/>
</clipPath>
</defs>
</svg>
