<svg width="30" height="30" viewBox="0 0 30 30" fill="none" xmlns="http://www.w3.org/2000/svg">
<g clip-path="url(#clip0_49_224)">
<path d="M11.2677 12.1074C10.9929 11.4998 10.8697 10.7912 11.0796 10.1474C11.2895 9.48926 11.7597 8.96132 12.2298 8.46945C13.5386 7.16028 15.1516 6.1984 16.4317 4.86773C17.1405 4.13717 17.7262 3.26204 17.9287 2.25664C18.0951 1.51899 18.0156 0.759613 17.8638 0.0290527C18.5436 0.80296 18.7678 1.90952 18.5725 2.90766C18.3628 4.02863 17.7406 5.01944 17.0102 5.87284C16.4245 6.56005 15.7517 7.16754 15.0503 7.7318C14.233 8.38997 13.4303 9.09868 12.9169 10.0245C12.4827 10.7765 12.3814 11.7023 12.6781 12.5196C13.1627 13.9227 14.2908 14.9642 14.9057 16.2877C14.2257 15.6873 13.5605 15.0654 12.9383 14.4073C12.2876 13.7129 11.6727 12.9754 11.2677 12.1074ZM14.9562 11.008C14.8333 12.158 15.4334 13.2428 16.1496 14.0963C16.4966 14.4796 16.7932 14.9497 16.8076 15.485C16.8222 16.2007 16.4173 16.8664 15.8962 17.3363C16.0194 17.322 16.1061 17.2134 16.2074 17.1556C16.9885 16.6565 17.7405 16.0273 18.1238 15.1668C18.377 14.5809 18.3192 13.8865 17.9866 13.344C17.5959 12.7076 17.0825 12.1434 16.7788 11.4492C16.6122 11.0586 16.5544 10.603 16.6919 10.1908C16.8728 9.63394 17.2633 9.17822 17.6756 8.78043C18.811 7.70293 20.1851 6.93599 21.5015 6.09718C19.838 6.57446 18.1963 7.23268 16.7932 8.26701C15.9036 8.93238 15.0792 9.85806 14.9562 11.008ZM22.8614 16.4469C23.6498 16.4903 24.4234 17.0688 24.5682 17.8645C24.7057 18.5516 24.3731 19.2313 23.9462 19.752C23.2446 20.591 22.297 21.1914 21.3426 21.7049C21.2484 21.7625 21.1689 21.8349 21.0966 21.9145C22.3551 21.5962 23.6133 21.1191 24.6333 20.3018C25.1972 19.8316 25.6963 19.2094 25.8049 18.4645C25.9061 17.8209 25.6387 17.1555 25.1612 16.7289C24.5825 16.2007 23.7655 16.0056 22.9986 16.1069C22.5575 16.1647 22.073 16.2587 21.7693 16.6276C22.131 16.5555 22.4851 16.4107 22.8614 16.4469ZM7.15974 18.5151C8.10703 18.7683 9.08349 18.8407 10.0526 18.9058C10.9205 18.9636 11.7885 18.9782 12.6637 18.9709C14.9201 18.9349 17.1911 18.7829 19.4041 18.2911C19.6138 18.2406 19.8453 18.2044 20.0336 18.0742C20.4024 17.8354 20.8071 17.6473 21.2051 17.4593C19.4041 17.7486 17.596 17.9947 15.7735 18.1104C13.9293 18.2261 12.0704 18.2984 10.219 18.1755C9.6911 18.125 9.14857 18.0958 8.65683 17.8932C8.54096 17.8427 8.38181 17.7416 8.43963 17.5895C8.54823 17.3942 8.76519 17.3003 8.95322 17.199C9.74892 16.8229 10.6167 16.6133 11.463 16.3674C10.0091 16.3455 8.56258 16.7143 7.23208 17.2858C6.93545 17.4305 6.6028 17.5462 6.36422 17.7921C6.26997 17.8932 6.26997 18.0671 6.37857 18.1537C6.59559 18.349 6.88473 18.4357 7.15974 18.5151ZM18.8764 20.5043C17.6106 20.7285 16.3375 20.9384 15.0573 21.0033C13.6542 21.0973 12.2512 21.0177 10.8626 20.8731C10.5951 20.8369 10.3274 20.7936 10.0888 20.6707C9.96588 20.5983 9.84299 20.4827 9.85025 20.3306C9.86461 20.092 10.067 19.9258 10.2118 19.7521C9.7635 19.9112 9.31499 20.0774 8.93893 20.3743C8.7796 20.4972 8.62063 20.6923 8.66391 20.9093C8.72928 21.1624 8.97513 21.3143 9.19209 21.4299C9.72713 21.705 10.3275 21.8277 10.9135 21.9363C12.3958 22.1751 13.9075 22.1823 15.3973 22.0808C16.9743 21.9579 18.5436 21.6977 20.0696 21.2492C19.6357 21.0541 19.2234 20.8296 18.8764 20.5043ZM10.9278 23.0069C10.5228 23.1225 10.1105 23.2601 9.77785 23.5274C9.61121 23.6576 9.48123 23.882 9.56089 24.0917C9.66217 24.3593 9.91533 24.5186 10.1537 24.6557C10.7759 24.9958 11.4774 25.1547 12.1644 25.2779C13.7196 25.5236 15.3178 25.4875 16.8656 25.2128C17.784 25.0391 18.7026 24.7932 19.556 24.41C18.9991 24.1786 18.4568 23.9181 17.9361 23.6144C17.032 23.7735 16.1205 23.94 15.1948 23.9978C13.9727 24.0918 12.7358 23.9905 11.5135 23.8387C11.2242 23.7736 10.8626 23.7447 10.6673 23.4915C10.5663 23.2815 10.7976 23.1296 10.9278 23.0069ZM20.8218 27.6572C21.8342 27.4477 22.8541 27.2086 23.7798 26.7387C24.069 26.5722 24.4234 26.3913 24.5176 26.0444C24.5682 25.7117 24.221 25.538 23.9751 25.4006C24.1269 25.5745 24.2282 25.8275 24.0762 26.0299C23.823 26.3699 23.3893 26.5 23.0059 26.6302C21.8055 26.9701 20.5613 27.1076 19.3246 27.2451C16.0484 27.5415 12.7502 27.6139 9.47414 27.3391C8.37478 27.2232 7.25352 27.1003 6.20489 26.7099C6.03871 26.6375 5.78554 26.5651 5.78554 26.3408C5.85045 26.1459 6.03871 26.0371 6.20489 25.943C6.95707 25.5598 7.79605 25.35 8.63498 25.2994C8.38931 25.1547 8.09994 25.1403 7.8179 25.1476C7.11622 25.1693 6.42918 25.35 5.76393 25.5745C5.19252 25.7839 4.6067 26.0155 4.15092 26.4351C3.97016 26.594 3.80397 26.8977 3.99177 27.1149C4.28114 27.4259 4.72965 27.5053 5.12715 27.5993C7.3548 27.9828 9.61121 28.1995 11.868 28.2791C14.8623 28.3662 17.8781 28.2359 20.8218 27.6572ZM23.7871 28.0479C22.4273 28.4818 21.0171 28.7204 19.6138 28.9157C17.1911 29.2194 14.7464 29.3135 12.309 29.2413C10.8265 29.1835 9.34392 29.0822 7.8828 28.8361C8.22272 29.0676 8.6423 29.1398 9.03294 29.2484C10.6748 29.5956 12.3598 29.6607 14.0306 29.7112C16.4821 29.7547 18.9339 29.6607 21.3497 29.2773C22.4925 29.0751 23.6425 28.829 24.6692 28.2938C25.2047 28.0117 25.7472 27.5776 25.8408 26.9485C25.2986 27.5269 24.5176 27.7947 23.7871 28.0479Z" fill="#E8E8E3"/>
</g>
<defs>
<clipPath id="clip0_49_224">
<rect width="29.75" height="29.75" rx="8" fill="white"/>
</clipPath>
</defs>
</svg>
